<?xml version="1.0" standalone="no"?>
<!DOCTYPE svg PUBLIC "-//W3C//DTD SVG 20010904//EN"
 "http://www.w3.org/TR/2001/REC-SVG-20010904/DTD/svg10.dtd">
<svg version="1.0" xmlns="http://www.w3.org/2000/svg"
 width="1830.000000pt" height="460.000000pt" viewBox="0 0 1830.000000 460.000000"
 preserveAspectRatio="xMidYMid meet">
<metadata>
Created by potrace 1.15, written by Peter Selinger 2001-2017
</metadata>
<g transform="translate(0.000000,460.000000) scale(0.100000,-0.100000)"
fill="#000000" stroke="none">
<path d="M11226 4580 c-392 -83 -791 -332 -949 -592 -69 -115 -96 -254 -63
-332 34 -80 134 -162 252 -205 l74 -27 -95 -27 c-426 -119 -885 -432 -1057
-719 -171 -286 -56 -542 257 -574 69 -7 200 8 308 35 300 77 760 323 1179 631
45 33 83 58 85 56 2 -2 -1 -15 -7 -30 -5 -15 -10 -39 -10 -54 1 -68 78 -172
128 -172 64 0 254 135 524 370 76 66 140 120 143 120 3 0 -14 -39 -38 -87
-106 -211 -119 -278 -66 -338 38 -43 78 -65 116 -65 57 0 180 91 372 275 69
66 81 74 66 46 -31 -60 -55 -143 -55 -187 0 -50 38 -103 90 -124 72 -30 196
58 482 338 150 147 194 186 174 152 -52 -86 -106 -200 -132 -277 -22 -66 -24
-82 -15 -114 12 -41 67 -95 107 -105 61 -15 158 41 337 195 109 95 113 97 101
63 -23 -63 -17 -123 15 -173 34 -54 75 -89 105 -89 58 0 295 168 529 373 l68
60 -40 -74 c-51 -96 -85 -201 -77 -241 12 -63 74 -118 131 -118 65 0 223 112
402 283 l115 111 -56 -110 c-63 -127 -71 -151 -62 -199 10 -51 74 -115 115
-115 22 0 31 4 28 13 -6 19 17 78 56 139 134 208 369 437 597 581 l35 22 -23
-35 c-40 -60 -84 -158 -89 -200 -5 -38 -3 -43 44 -90 35 -35 58 -50 77 -50 42
0 133 36 202 79 l63 40 -39 -58 c-60 -87 -102 -184 -102 -236 -1 -33 7 -57 28
-91 41 -66 73 -88 118 -80 69 13 281 170 556 412 l105 92 -67 -137 c-83 -168
-98 -222 -73 -275 23 -48 74 -86 124 -93 32 -4 50 0 87 22 60 35 156 116 268
224 49 47 86 77 82 66 -4 -11 -10 -52 -13 -92 -5 -61 -2 -78 17 -118 47 -96
136 -130 271 -103 267 55 635 360 706 585 l17 53 70 0 c90 1 141 12 222 52 66
32 163 112 151 124 -3 4 -48 -14 -99 -40 -175 -87 -245 -83 -345 20 -39 39
-71 64 -84 64 -30 0 -80 -33 -108 -71 -23 -31 -24 -35 -11 -96 l12 -64 -86
-114 c-207 -273 -443 -473 -530 -451 -101 25 67 348 309 593 186 187 325 266
478 267 42 0 77 4 77 8 0 17 -70 41 -132 46 -163 11 -395 -72 -577 -208 -89
-67 -206 -185 -248 -252 -61 -97 -443 -401 -470 -374 -8 7 102 211 203 378
327 538 739 1093 858 1155 15 8 39 12 52 9 33 -9 30 6 -8 45 -64 64 -174 89
-228 53 -104 -70 -293 -304 -555 -689 -48 -71 -91 -133 -95 -138 -3 -4 -23 -1
-43 8 -49 20 -108 19 -200 -5 -130 -33 -343 -151 -482 -266 -162 -135 -311
-228 -399 -248 l-28 -7 32 58 c46 81 86 131 201 255 76 82 99 113 94 127 -9
29 -92 101 -116 101 -79 0 -394 -229 -633 -459 -96 -92 -92 -82 33 84 100 133
172 205 205 205 21 0 26 5 26 23 0 37 -53 102 -103 126 -42 20 -48 21 -74 7
-49 -26 -165 -160 -272 -316 -50 -71 -115 -137 -281 -279 -144 -124 -302 -232
-318 -217 -3 3 13 43 36 88 45 92 156 245 234 325 41 41 49 56 45 75 -10 39
-65 107 -92 114 -30 7 -81 -29 -225 -162 -102 -94 -274 -226 -435 -334 -100
-67 -185 -115 -185 -105 0 15 48 98 101 175 211 310 547 560 757 564 58 1 66
-1 88 -27 28 -33 32 -83 9 -127 -21 -42 0 -49 25 -8 62 102 22 200 -98 234
-157 46 -419 -35 -655 -203 -45 -32 -133 -110 -196 -173 -189 -189 -377 -347
-494 -415 -26 -15 -51 -25 -54 -21 -10 10 35 115 91 210 66 112 222 321 298
400 48 50 60 58 82 52 35 -9 35 18 1 68 -56 83 -121 113 -173 81 -15 -10 -146
-138 -292 -284 -254 -256 -464 -441 -569 -499 -52 -30 -53 -20 -2 85 52 108
149 255 249 379 104 129 147 168 178 160 33 -9 32 18 -5 75 -33 53 -85 89
-128 89 -48 0 -188 -152 -320 -346 -50 -73 -95 -125 -169 -191 -176 -157 -325
-270 -383 -288 -22 -7 -19 2 36 106 85 163 206 361 373 614 174 262 244 359
405 565 165 209 234 271 286 255 28 -9 24 17 -8 48 -39 36 -110 67 -159 67
-58 0 -121 -45 -220 -159 -91 -105 -265 -341 -406 -551 -50 -74 -92 -136 -93
-138 -1 -1 -19 5 -41 14 -193 81 -689 -201 -911 -517 -19 -26 -76 -71 -178
-138 -658 -431 -1191 -648 -1455 -592 -240 52 -193 284 118 583 284 273 701
505 939 524 38 3 81 11 97 17 28 10 86 79 86 102 0 8 -31 14 -94 19 -261 18
-426 115 -426 249 1 167 394 524 740 672 171 73 347 96 457 59 160 -53 155
-187 -11 -347 -103 -99 -349 -247 -449 -271 -27 -6 -27 -5 -16 16 6 13 22 38
36 56 52 69 -46 15 -119 -66 -50 -55 -52 -101 -7 -143 27 -25 39 -29 89 -29
230 0 551 239 640 476 26 70 28 200 4 247 -55 108 -148 147 -349 146 -77 0
-152 -7 -209 -19z m1017 -1123 c-136 -223 -147 -237 -222 -299 -226 -189 -574
-435 -602 -426 -15 5 60 123 147 232 100 125 305 325 405 396 101 71 184 110
237 110 33 0 41 -3 35 -13z m4427 8 c0 -8 -131 -217 -149 -239 -63 -74 -490
-395 -634 -476 l-59 -33 25 49 c45 88 179 257 307 384 199 201 374 320 467
320 23 0 43 -2 43 -5z"/>
<path d="M2035 4566 c-231 -39 -479 -138 -750 -301 -631 -379 -1128 -943
-1256 -1425 -30 -113 -33 -318 -6 -396 43 -124 135 -211 268 -255 66 -21 91
-24 234 -23 142 0 171 4 260 28 346 94 815 352 1253 689 7 6 -5 -27 -28 -73
-45 -95 -50 -141 -21 -199 24 -45 59 -71 100 -71 24 0 28 4 24 19 -7 26 44
122 117 221 96 130 325 352 452 438 58 40 109 72 112 72 3 0 -9 -21 -26 -47
-42 -61 -77 -150 -78 -192 0 -70 80 -138 150 -126 54 9 163 64 236 117 l61 46
-55 -92 c-76 -125 -122 -228 -129 -286 -6 -49 -5 -51 39 -95 38 -37 52 -45 83
-45 87 0 233 109 502 374 101 99 184 177 185 175 2 -3 29 -32 61 -65 l59 -61
-75 -41 c-123 -68 -249 -157 -305 -215 -62 -66 -69 -106 -26 -156 23 -27 32
-31 77 -31 74 0 169 26 272 74 114 54 186 111 215 170 27 56 22 82 -25 147
l-34 46 97 46 c88 42 264 114 319 131 18 6 13 -9 -39 -101 -103 -185 -156
-321 -142 -366 19 -63 95 -127 150 -127 59 0 176 91 396 307 l128 125 -36 -76
c-41 -90 -77 -221 -69 -253 13 -54 100 -123 155 -123 26 0 26 16 0 23 -33 9
-34 35 -2 100 80 162 428 483 685 632 l49 28 -75 -96 c-129 -165 -240 -359
-267 -469 -15 -60 -1 -105 49 -159 28 -28 46 -39 68 -39 64 0 179 77 373 248
l60 54 -27 -58 c-14 -32 -28 -80 -31 -106 -4 -46 -3 -50 40 -93 36 -36 52 -45
79 -45 69 0 187 76 360 232 l77 68 -14 -38 c-23 -63 -18 -122 15 -173 33 -52
75 -89 103 -89 58 0 300 170 529 371 l66 59 -49 -98 c-27 -53 -54 -123 -61
-155 -11 -54 -10 -62 9 -95 26 -46 78 -82 116 -82 70 0 227 112 420 298 l128
124 -49 -88 c-70 -126 -95 -206 -80 -251 18 -56 75 -113 113 -113 30 0 32 2
28 33 -6 48 60 140 203 282 174 175 431 382 590 475 45 27 45 26 -31 -65 -120
-144 -281 -422 -298 -514 -8 -45 20 -107 68 -149 45 -39 67 -38 157 10 94 49
213 151 437 373 189 188 236 245 201 245 -6 0 -77 -60 -157 -134 -170 -154
-271 -240 -357 -301 -68 -48 -145 -89 -145 -77 0 16 78 160 135 247 66 103
206 295 273 373 l44 53 -16 44 c-10 24 -33 58 -53 75 -29 26 -41 31 -67 26
-92 -19 -486 -318 -735 -560 l-94 -91 58 85 c101 148 198 273 269 348 58 60
74 72 93 67 19 -4 23 -1 23 16 0 57 -96 149 -154 149 -40 0 -127 -89 -265
-272 -95 -126 -138 -171 -325 -332 -148 -128 -308 -237 -324 -222 -3 3 13 43
36 88 45 92 156 245 234 325 41 41 49 56 45 75 -10 39 -65 107 -92 114 -30 7
-81 -29 -225 -162 -102 -94 -274 -226 -435 -334 -100 -67 -185 -115 -185 -105
0 33 124 218 229 340 189 222 464 396 629 399 58 1 66 -2 88 -27 28 -33 32
-83 9 -127 -21 -42 0 -49 25 -8 62 102 22 200 -98 234 -157 46 -419 -35 -655
-203 -45 -32 -142 -119 -217 -193 -141 -140 -269 -253 -380 -334 -71 -53 -139
-90 -147 -82 -8 8 100 197 195 341 48 72 119 163 158 204 63 64 76 73 98 67
20 -5 26 -3 26 10 0 30 -48 100 -87 127 -64 44 -90 38 -164 -40 -70 -73 -154
-182 -238 -306 -35 -53 -86 -108 -161 -174 -120 -106 -269 -217 -312 -232 -26
-9 -27 -8 -18 14 42 112 263 445 390 589 42 49 50 63 45 85 -9 40 -57 104 -89
120 -26 12 -34 10 -111 -28 -137 -68 -357 -234 -593 -447 l-63 -57 42 74 c113
200 313 498 488 726 l86 112 125 0 c127 1 431 -13 550 -25 46 -4 62 -3 55 5
-16 17 -243 50 -467 68 l-206 17 18 26 c10 14 57 67 105 118 94 100 149 136
190 126 73 -18 -31 88 -109 111 -65 19 -71 19 -123 -7 -51 -25 -199 -175 -288
-291 l-59 -77 -77 0 c-42 0 -112 -3 -155 -7 l-79 -6 29 39 c130 174 226 260
279 250 32 -7 34 2 7 37 -30 38 -116 77 -171 77 -40 0 -55 -6 -96 -38 -62 -50
-126 -121 -238 -264 l-90 -115 -109 -17 c-202 -33 -339 -78 -391 -130 -50 -50
-23 -141 56 -181 38 -20 52 -19 44 3 -8 28 26 64 94 101 61 32 163 71 187 71
7 0 -21 -48 -62 -106 -59 -85 -204 -308 -280 -430 -8 -14 -49 -33 -121 -58
-59 -21 -176 -70 -260 -111 l-151 -73 -31 32 c-17 18 -31 42 -31 55 0 29 101
131 187 189 85 58 234 132 279 139 l37 6 -19 -32 c-10 -18 -49 -65 -86 -106
-38 -40 -68 -76 -68 -79 0 -16 48 -3 90 24 62 40 150 133 150 159 0 54 -24
127 -51 154 -27 27 -31 28 -91 21 -139 -15 -309 -86 -423 -177 -90 -72 -128
-127 -143 -207 -6 -28 -28 -55 -107 -129 -181 -169 -375 -319 -449 -347 -54
-20 230 432 345 550 58 59 71 68 93 62 22 -5 26 -3 26 15 0 56 -96 149 -154
149 -24 0 -43 -13 -96 -67 -36 -38 -93 -106 -127 -152 -65 -87 -125 -138 -231
-198 -68 -38 -162 -77 -169 -69 -7 7 32 78 83 146 26 36 92 111 147 167 l99
102 -21 35 c-30 47 -77 86 -106 86 -74 0 -348 -196 -610 -435 l-109 -100 44
60 c157 217 252 318 289 308 46 -12 16 62 -48 120 -38 34 -61 43 -101 37 -42
-5 -202 -195 -344 -408 -62 -93 -78 -109 -165 -171 -446 -315 -934 -553 -1261
-616 -99 -18 -253 -21 -327 -5 -155 34 -229 163 -202 356 84 618 1042 1584
1764 1780 141 39 288 40 360 4 192 -96 83 -324 -228 -476 -86 -42 -191 -73
-203 -61 -4 3 5 26 20 51 33 57 33 61 -5 39 -41 -23 -105 -104 -114 -142 -9
-40 10 -104 42 -142 26 -31 28 -31 94 -27 116 9 254 85 388 212 166 160 230
315 190 461 -16 57 -89 127 -164 155 -75 28 -234 35 -350 16z m3333 -802
c-102 -142 -291 -429 -357 -541 -83 -140 -525 -520 -583 -501 -23 8 197 397
400 708 112 172 273 400 295 418 17 14 313 55 335 46 1 -1 -39 -59 -90 -130z"/>
<path d="M3660 3824 c-50 -54 -92 -142 -94 -194 -1 -43 25 -80 57 -80 11 0 54
33 98 74 81 78 131 111 155 102 22 -8 17 31 -8 65 -30 40 -96 79 -135 79 -23
0 -40 -11 -73 -46z"/>
<path d="M6534 3833 c-43 -45 -91 -136 -100 -190 -4 -30 -1 -44 16 -66 12 -15
30 -27 41 -27 11 0 50 29 87 66 73 72 144 119 167 110 29 -11 16 33 -22 75
-73 80 -131 90 -189 32z"/>
<path d="M6492 2070 c-47 -21 -105 -60 -100 -66 2 -2 26 3 52 11 71 22 96 3
96 -71 0 -236 -413 -868 -807 -1236 -81 -76 -186 -148 -216 -148 -17 0 -19 5
-13 41 26 164 363 815 501 968 30 33 42 40 61 35 13 -3 24 -2 24 4 0 17 -60
69 -102 88 -39 18 -41 18 -81 -4 -93 -49 -472 -394 -685 -622 -74 -80 -144
-154 -154 -165 -11 -11 18 41 65 115 255 407 357 635 357 794 0 59 -4 79 -23
107 -88 131 -303 129 -582 -5 -306 -146 -592 -383 -685 -565 -14 -28 -23 -64
-23 -94 -1 -44 3 -53 31 -78 38 -34 70 -36 130 -9 51 23 56 44 9 35 -24 -5
-37 -2 -46 9 -42 50 258 376 517 563 218 158 454 230 547 169 72 -47 32 -146
-297 -724 -257 -452 -348 -637 -348 -707 0 -45 78 -83 108 -53 17 17 15 31 -3
24 -32 -12 -14 34 43 111 118 158 393 438 692 703 117 104 206 178 198 165 -3
-5 -33 -55 -66 -111 -228 -380 -345 -735 -272 -827 25 -32 76 -43 123 -28 163
54 602 500 874 886 217 310 306 556 237 662 -13 20 -68 43 -104 43 -8 0 -34
-9 -58 -20z"/>
<path d="M9025 1985 c-313 -51 -594 -196 -671 -346 -47 -94 -25 -197 50 -233
58 -27 69 -21 36 21 -59 75 10 183 192 300 208 134 452 207 693 207 127 0 147
-2 219 -27 196 -69 284 -185 257 -338 -61 -351 -601 -778 -1231 -973 -192 -59
-307 -79 -467 -80 -129 -1 -144 1 -170 20 -37 28 -40 62 -8 124 54 106 247
264 457 375 183 96 102 81 -97 -18 -279 -139 -465 -320 -465 -452 0 -112 97
-165 300 -165 625 -1 1435 404 1701 850 54 91 80 171 86 266 16 232 -132 395
-416 460 -96 22 -355 27 -466 9z"/>
<path d="M7425 1842 c-22 -16 -61 -51 -86 -79 -95 -101 -336 -441 -443 -623
-31 -54 -55 -77 -134 -136 -200 -148 -319 -214 -386 -214 -38 0 -39 0 -33 34
3 19 16 49 28 68 19 29 32 37 78 46 112 24 260 112 355 212 59 62 75 98 58
135 -31 68 -134 70 -266 7 -184 -88 -353 -269 -391 -419 -19 -72 -11 -100 38
-137 83 -64 251 -2 465 169 51 41 94 75 96 75 2 0 -9 -30 -25 -67 -38 -92 -39
-145 0 -184 19 -19 40 -29 58 -29 24 1 25 2 11 11 -22 12 -22 22 -2 65 l17 35
19 -31 c36 -60 125 -76 220 -40 189 71 462 413 417 522 -15 36 -64 78 -92 78
-60 0 -224 -104 -357 -226 l-64 -59 29 50 c87 152 322 474 435 598 56 61 103
92 126 83 28 -11 14 23 -21 49 -53 41 -101 43 -150 7z m-661 -618 c-79 -97
-289 -254 -324 -242 -17 5 104 131 182 191 69 53 168 110 176 102 3 -2 -13
-25 -34 -51z m600 -11 c-141 -244 -363 -459 -439 -425 -48 22 -49 45 -4 104
64 82 117 134 207 205 82 64 236 163 255 163 5 0 -3 -21 -19 -47z"/>
<path d="M9300 1793 c-160 -76 -669 -785 -670 -933 0 -55 60 -67 123 -25 41
29 50 51 15 40 -13 -3 -34 -9 -47 -12 l-25 -6 29 49 c71 122 323 436 503 626
153 162 195 195 232 183 11 -4 20 -2 20 2 0 15 -64 71 -93 82 -37 14 -45 14
-87 -6z"/>
<path d="M11123 1528 c-52 -58 -78 -124 -63 -164 14 -36 40 -29 100 27 29 27
66 53 82 56 15 3 28 11 28 17 0 33 -66 86 -108 86 -10 0 -28 -10 -39 -22z"/>
<path d="M10668 1354 c-71 -17 -169 -65 -226 -111 -43 -35 -82 -97 -82 -130 0
-32 -315 -256 -428 -304 -48 -21 -107 -25 -117 -8 -4 5 6 36 22 67 27 55 29
57 86 69 141 31 343 166 403 269 23 39 25 48 15 72 -27 65 -108 78 -217 37
-208 -78 -428 -309 -450 -473 -6 -51 -6 -53 34 -92 33 -33 46 -40 79 -40 121
0 300 102 515 292 l69 62 41 -41 41 -41 -44 -22 c-72 -37 -177 -111 -209 -147
-35 -39 -37 -62 -11 -94 15 -19 27 -23 65 -21 102 4 256 79 296 145 26 42 25
57 -4 99 l-24 36 87 40 c96 45 201 85 201 76 0 -3 -14 -26 -31 -51 -52 -76
-119 -215 -119 -248 0 -41 45 -85 87 -85 37 0 121 54 209 134 l61 55 -10 -38
c-8 -29 -7 -47 2 -69 19 -45 56 -82 83 -82 39 0 181 103 400 290 l52 45 -30
-55 c-17 -30 -51 -90 -75 -133 l-43 -77 -104 -56 c-361 -190 -632 -459 -632
-626 0 -70 29 -98 104 -98 213 0 463 236 747 705 68 112 90 132 176 159 22 7
22 7 8 -34 -17 -49 -12 -80 21 -115 29 -31 75 -35 67 -5 -10 37 79 145 224
272 86 76 231 186 276 210 10 5 -9 -28 -43 -73 -156 -210 -192 -313 -131 -378
16 -17 37 -31 47 -31 33 0 100 40 179 105 43 36 78 65 79 65 1 0 0 -20 -2 -44
-5 -53 9 -81 51 -106 92 -56 262 14 497 205 l76 62 -48 -91 c-55 -105 -59
-141 -22 -185 32 -38 74 -43 74 -8 0 62 216 310 354 406 l72 49 -33 -65 c-40
-79 -40 -93 -7 -132 50 -59 135 -35 275 77 84 67 115 99 105 109 -3 4 -19 -3
-34 -15 -97 -78 -226 -152 -239 -138 -10 9 60 106 131 182 36 40 66 78 66 86
0 23 -54 68 -81 68 -43 0 -199 -109 -359 -249 l-74 -66 33 47 c58 81 132 158
152 158 31 0 23 35 -16 75 -39 39 -69 44 -101 17 -27 -22 -115 -127 -146 -175
-14 -20 -63 -67 -109 -103 -195 -154 -377 -258 -441 -252 -30 3 -33 6 -31 32
1 16 13 45 26 65 20 30 34 38 78 48 175 40 419 226 419 319 0 46 -47 84 -104
84 -132 0 -355 -142 -471 -300 -55 -76 -275 -246 -283 -221 -7 21 144 254 237
366 22 27 41 58 41 68 0 11 -15 34 -34 53 l-35 35 -38 -16 c-74 -30 -247 -161
-408 -308 l-90 -82 40 55 c127 177 195 253 220 244 33 -13 1 59 -41 91 -40 30
-69 19 -134 -52 -59 -64 -232 -313 -244 -351 -5 -14 -114 -57 -123 -48 -5 5
99 191 111 198 14 9 -12 55 -48 82 -34 26 -45 20 -186 -98 -109 -92 -312 -236
-332 -236 -16 0 43 96 110 181 145 181 391 325 469 274 23 -16 25 -21 20 -69
l-6 -51 19 24 c30 35 27 96 -6 126 -33 31 -78 39 -163 32 -141 -12 -286 -95
-464 -265 -162 -155 -327 -283 -327 -254 0 10 96 173 140 238 50 73 120 144
141 144 30 0 23 38 -15 76 -48 48 -76 45 -131 -13 -24 -25 -54 -60 -66 -77
-17 -25 -39 -37 -108 -59 -47 -15 -130 -49 -184 -76 l-99 -47 -19 24 c-18 24
-18 26 -2 51 22 34 45 53 125 107 71 47 155 87 171 81 6 -2 -15 -33 -47 -70
-52 -62 -55 -67 -32 -67 15 0 45 19 80 51 60 55 67 75 45 138 -19 53 -44 59
-141 35z m-406 -102 c-33 -45 -176 -178 -234 -216 -29 -19 -71 -42 -92 -51
l-39 -16 31 38 c70 88 186 187 282 241 68 39 77 40 52 4z m2739 -1 c-57 -80
-243 -232 -327 -267 l-36 -15 20 28 c25 34 154 159 203 196 40 30 139 87 152
87 5 0 -1 -13 -12 -29z m-1727 -664 c-175 -260 -345 -432 -467 -474 -46 -16
-71 -3 -61 31 26 89 193 285 333 391 77 58 253 167 260 160 2 -3 -27 -51 -65
-108z"/>
</g>
</svg>
